<svg width="719" height="432" viewBox="0 0 719 432" fill="none" xmlns="http://www.w3.org/2000/svg">
<path d="M58.5 103.74H84.42L71.46 71.16L58.5 103.74ZM50.94 40.02C53.22 34.98 55.92 30.84 59.04 27.6C62.28 24.24 66.42 22.56 71.46 22.56C76.5 22.56 80.58 24.18 83.7 27.42C86.94 30.54 89.64 34.56 91.8 39.48L140.04 150H102.42L95.4 131.64H47.7L40.32 150H2.88L50.94 40.02ZM222.83 105.18C222.83 102.3 222.29 99.54 221.21 96.9C220.13 94.14 218.63 91.8 216.71 89.88C214.91 87.84 212.75 86.22 210.23 85.02C207.83 83.82 205.25 83.22 202.49 83.22C199.73 83.22 197.09 83.82 194.57 85.02C192.17 86.22 190.01 87.84 188.09 89.88C186.29 91.8 184.85 94.14 183.77 96.9C182.69 99.54 182.15 102.3 182.15 105.18C182.15 108.18 182.69 111.06 183.77 113.82C184.85 116.46 186.29 118.8 188.09 120.84C190.01 122.88 192.17 124.5 194.57 125.7C197.09 126.9 199.73 127.5 202.49 127.5C205.25 127.5 207.83 126.9 210.23 125.7C212.75 124.5 214.91 122.88 216.71 120.84C218.63 118.8 220.13 116.46 221.21 113.82C222.29 111.06 222.83 108.18 222.83 105.18ZM255.05 105.36C255.05 112.08 253.85 118.38 251.45 124.26C249.17 130.14 246.05 135.3 242.09 139.74C238.13 144.18 233.45 147.66 228.05 150.18C222.77 152.7 217.07 153.96 210.95 153.96C205.55 153.96 200.51 152.94 195.83 150.9C191.15 148.86 186.89 146.1 183.05 142.62V186.18H150.29V60.18H183.05V68.1C186.89 64.62 191.15 61.86 195.83 59.82C200.51 57.78 205.55 56.76 210.95 56.76C217.07 56.76 222.77 58.02 228.05 60.54C233.45 63.06 238.13 66.54 242.09 70.98C246.05 75.42 249.17 80.58 251.45 86.46C253.85 92.34 255.05 98.64 255.05 105.36ZM261.454 105.36C261.454 98.28 262.774 91.8 265.414 85.92C268.174 79.92 271.894 74.76 276.574 70.44C281.254 66.12 286.714 62.76 292.954 60.36C299.194 57.96 305.854 56.76 312.934 56.76C320.014 56.76 326.674 57.96 332.914 60.36C339.154 62.76 344.614 66.12 349.294 70.44C353.974 74.76 357.634 79.92 360.274 85.92C363.034 91.8 364.414 98.28 364.414 105.36C364.414 112.44 363.034 118.98 360.274 124.98C357.634 130.86 353.974 135.96 349.294 140.28C344.614 144.6 339.154 147.96 332.914 150.36C326.674 152.76 320.014 153.96 312.934 153.96C305.854 153.96 299.194 152.76 292.954 150.36C286.714 147.96 281.254 144.6 276.574 140.28C271.894 135.96 268.174 130.86 265.414 124.98C262.774 118.98 261.454 112.44 261.454 105.36ZM293.674 105.18C293.674 108.42 294.154 111.42 295.114 114.18C296.194 116.82 297.574 119.16 299.254 121.2C301.054 123.12 303.094 124.68 305.374 125.88C307.774 126.96 310.294 127.5 312.934 127.5C315.574 127.5 318.034 126.96 320.314 125.88C322.714 124.68 324.754 123.12 326.434 121.2C328.234 119.16 329.614 116.82 330.574 114.18C331.654 111.42 332.194 108.42 332.194 105.18C332.194 102.06 331.654 99.18 330.574 96.54C329.614 93.9 328.234 91.62 326.434 89.7C324.754 87.66 322.714 86.1 320.314 85.02C318.034 83.82 315.574 83.22 312.934 83.22C310.294 83.22 307.774 83.82 305.374 85.02C303.094 86.1 301.054 87.66 299.254 89.7C297.574 91.62 296.194 93.9 295.114 96.54C294.154 99.18 293.674 102.06 293.674 105.18ZM372.067 33.72C372.067 31.32 372.547 29.1 373.507 27.06C374.587 25.02 375.967 23.22 377.647 21.66C379.447 19.98 381.487 18.72 383.767 17.88C386.047 16.92 388.507 16.44 391.147 16.44C393.787 16.44 396.247 16.92 398.527 17.88C400.807 18.72 402.787 19.98 404.467 21.66C406.267 23.22 407.647 25.02 408.607 27.06C409.687 29.1 410.227 31.32 410.227 33.72C410.227 36 409.687 38.22 408.607 40.38C407.647 42.42 406.267 44.28 404.467 45.96C402.787 47.52 400.807 48.78 398.527 49.74C396.247 50.58 393.787 51 391.147 51C388.507 51 386.047 50.58 383.767 49.74C381.487 48.78 379.447 47.52 377.647 45.96C375.967 44.28 374.587 42.42 373.507 40.38C372.547 38.22 372.067 36 372.067 33.72ZM374.767 60H407.527V150H374.767V60ZM417.9 105.36C417.9 98.28 419.22 91.8 421.86 85.92C424.62 79.92 428.34 74.76 433.02 70.44C437.7 66.12 443.16 62.76 449.4 60.36C455.64 57.96 462.3 56.76 469.38 56.76C476.46 56.76 483.12 57.96 489.36 60.36C495.6 62.76 501.06 66.12 505.74 70.44C510.42 74.76 514.08 79.92 516.72 85.92C519.48 91.8 520.86 98.28 520.86 105.36C520.86 112.44 519.48 118.98 516.72 124.98C514.08 130.86 510.42 135.96 505.74 140.28C501.06 144.6 495.6 147.96 489.36 150.36C483.12 152.76 476.46 153.96 469.38 153.96C462.3 153.96 455.64 152.76 449.4 150.36C443.16 147.96 437.7 144.6 433.02 140.28C428.34 135.96 424.62 130.86 421.86 124.98C419.22 118.98 417.9 112.44 417.9 105.36ZM450.12 105.18C450.12 108.42 450.6 111.42 451.56 114.18C452.64 116.82 454.02 119.16 455.7 121.2C457.5 123.12 459.54 124.68 461.82 125.88C464.22 126.96 466.74 127.5 469.38 127.5C472.02 127.5 474.48 126.96 476.76 125.88C479.16 124.68 481.2 123.12 482.88 121.2C484.68 119.16 486.06 116.82 487.02 114.18C488.1 111.42 488.64 108.42 488.64 105.18C488.64 102.06 488.1 99.18 487.02 96.54C486.06 93.9 484.68 91.62 482.88 89.7C481.2 87.66 479.16 86.1 476.76 85.02C474.48 83.82 472.02 83.22 469.38 83.22C466.74 83.22 464.22 83.82 461.82 85.02C459.54 86.1 457.5 87.66 455.7 89.7C454.02 91.62 452.64 93.9 451.56 96.54C450.6 99.18 450.12 102.06 450.12 105.18Z" fill="#127BF3"/>
<path d="M180.02 269.52V336.48H201.26C206.42 336.48 210.92 335.52 214.76 333.6C218.72 331.68 221.96 329.16 224.48 326.04C227.12 322.92 229.1 319.38 230.42 315.42C231.74 311.34 232.4 307.2 232.4 303C232.4 298.8 231.74 294.72 230.42 290.76C229.1 286.68 227.12 283.08 224.48 279.96C221.96 276.84 218.72 274.32 214.76 272.4C210.92 270.48 206.42 269.52 201.26 269.52H180.02ZM166.88 366C152.72 366 145.64 359.04 145.64 345.12V260.88C145.64 246.96 152.72 240 166.88 240H202.88C213.68 240 223.1 241.8 231.14 245.4C239.3 249 246.08 253.74 251.48 259.62C256.88 265.5 260.9 272.22 263.54 279.78C266.3 287.22 267.68 294.9 267.68 302.82C267.68 310.74 266.3 318.48 263.54 326.04C260.9 333.6 256.88 340.38 251.48 346.38C246.08 352.26 239.3 357 231.14 360.6C223.1 364.2 213.68 366 202.88 366H166.88ZM278.09 249.72C278.09 247.32 278.57 245.1 279.53 243.06C280.61 241.02 281.99 239.22 283.67 237.66C285.47 235.98 287.51 234.72 289.79 233.88C292.07 232.92 294.53 232.44 297.17 232.44C299.81 232.44 302.27 232.92 304.55 233.88C306.83 234.72 308.81 235.98 310.49 237.66C312.29 239.22 313.67 241.02 314.63 243.06C315.71 245.1 316.25 247.32 316.25 249.72C316.25 252 315.71 254.22 314.63 256.38C313.67 258.42 312.29 260.28 310.49 261.96C308.81 263.52 306.83 264.78 304.55 265.74C302.27 266.58 299.81 267 297.17 267C294.53 267 292.07 266.58 289.79 265.74C287.51 264.78 285.47 263.52 283.67 261.96C281.99 260.28 280.61 258.42 279.53 256.38C278.57 254.22 278.09 252 278.09 249.72ZM280.79 276H313.55V366H280.79V276ZM356.863 321.18C356.863 324.18 357.403 327.06 358.483 329.82C359.563 332.46 361.003 334.8 362.803 336.84C364.723 338.88 366.883 340.5 369.283 341.7C371.803 342.9 374.443 343.5 377.203 343.5C379.963 343.5 382.543 342.9 384.943 341.7C387.463 340.5 389.623 338.88 391.423 336.84C393.343 334.8 394.843 332.46 395.923 329.82C397.003 327.06 397.543 324.18 397.543 321.18C397.543 318.3 397.003 315.54 395.923 312.9C394.843 310.14 393.343 307.8 391.423 305.88C389.623 303.84 387.463 302.22 384.943 301.02C382.543 299.82 379.963 299.22 377.203 299.22C374.443 299.22 371.803 299.82 369.283 301.02C366.883 302.22 364.723 303.84 362.803 305.88C361.003 307.8 359.563 310.14 358.483 312.9C357.403 315.54 356.863 318.3 356.863 321.18ZM324.643 321.36C324.643 314.64 325.783 308.34 328.063 302.46C330.463 296.58 333.643 291.42 337.603 286.98C341.563 282.54 346.183 279.06 351.463 276.54C356.863 274.02 362.623 272.76 368.743 272.76C374.143 272.76 379.183 273.78 383.863 275.82C388.543 277.86 392.803 280.62 396.643 284.1V276.18H429.403V363.12C429.403 372 427.903 379.68 424.903 386.16C421.903 392.64 417.883 397.98 412.843 402.18C407.923 406.38 402.283 409.5 395.923 411.54C389.563 413.7 382.963 414.78 376.123 414.78C365.203 414.78 355.603 412.62 347.323 408.3C339.043 404.1 332.083 398.82 326.443 392.46L347.503 375.18C350.983 378.42 354.883 381.3 359.203 383.82C363.523 386.34 368.563 387.6 374.323 387.6C377.203 387.6 379.963 387.12 382.603 386.16C385.243 385.32 387.583 383.94 389.623 382.02C391.783 380.1 393.463 377.7 394.663 374.82C395.983 371.94 396.643 368.58 396.643 364.74V358.62C392.803 362.1 388.543 364.86 383.863 366.9C379.183 368.94 374.143 369.96 368.743 369.96C362.623 369.96 356.863 368.7 351.463 366.18C346.183 363.66 341.563 360.18 337.603 355.74C333.643 351.3 330.463 346.14 328.063 340.26C325.783 334.38 324.643 328.08 324.643 321.36ZM441.567 249.72C441.567 247.32 442.047 245.1 443.007 243.06C444.087 241.02 445.467 239.22 447.147 237.66C448.947 235.98 450.987 234.72 453.267 233.88C455.547 232.92 458.007 232.44 460.647 232.44C463.287 232.44 465.747 232.92 468.027 233.88C470.307 234.72 472.287 235.98 473.967 237.66C475.767 239.22 477.147 241.02 478.107 243.06C479.187 245.1 479.727 247.32 479.727 249.72C479.727 252 479.187 254.22 478.107 256.38C477.147 258.42 475.767 260.28 473.967 261.96C472.287 263.52 470.307 264.78 468.027 265.74C465.747 266.58 463.287 267 460.647 267C458.007 267 455.547 266.58 453.267 265.74C450.987 264.78 448.947 263.52 447.147 261.96C445.467 260.28 444.087 258.42 443.007 256.38C442.047 254.22 441.567 252 441.567 249.72ZM444.267 276H477.027V366H444.267V276ZM503.6 300.48H486.32V276H503.6V251.16H536.36V276H553.64V300.48H536.36V366H503.6V300.48ZM591.179 321.18C591.179 324.18 591.719 327.06 592.799 329.82C593.879 332.46 595.319 334.8 597.119 336.84C599.039 338.88 601.199 340.5 603.599 341.7C606.119 342.9 608.759 343.5 611.519 343.5C614.279 343.5 616.859 342.9 619.259 341.7C621.779 340.5 623.939 338.88 625.739 336.84C627.659 334.8 629.159 332.46 630.239 329.82C631.319 327.06 631.859 324.18 631.859 321.18C631.859 318.3 631.319 315.54 630.239 312.9C629.159 310.14 627.659 307.8 625.739 305.88C623.939 303.84 621.779 302.22 619.259 301.02C616.859 299.82 614.279 299.22 611.519 299.22C608.759 299.22 606.119 299.82 603.599 301.02C601.199 302.22 599.039 303.84 597.119 305.88C595.319 307.8 593.879 310.14 592.799 312.9C591.719 315.54 591.179 318.3 591.179 321.18ZM558.959 321.36C558.959 314.64 560.099 308.34 562.379 302.46C564.779 296.58 567.959 291.42 571.919 286.98C575.879 282.54 580.499 279.06 585.779 276.54C591.179 274.02 596.939 272.76 603.059 272.76C608.459 272.76 613.499 273.78 618.179 275.82C622.859 277.86 627.119 280.62 630.959 284.1V276H663.719V366H630.959V358.62C627.119 362.1 622.859 364.86 618.179 366.9C613.499 368.94 608.459 369.96 603.059 369.96C596.939 369.96 591.179 368.7 585.779 366.18C580.499 363.66 575.879 360.18 571.919 355.74C567.959 351.3 564.779 346.14 562.379 340.26C560.099 334.38 558.959 328.08 558.959 321.36ZM711.163 366H678.403V240H711.163V366Z" fill="#127BF3"/>
</svg>
